<svg width="4181" height="2684" viewBox="0 0 4181 2684" fill="none" xmlns="http://www.w3.org/2000/svg">
<g clip-path="url(#clip0_18965_778)">
<path d="M258.5 2271L1074.5 1690.5L1362 1739L1667 1648.5L1854 1739L1917.5 1707L1964 1739L2241.5 1590.5H2363L2524 1690.5L2623.5 1636L2789.5 1771.5L2890.5 1727.5L3034.5 1824L3185 1807L3305.5 1739L3848 2306.5L2548 2401H221L258.5 2271Z" fill="#AD00FF"/>
<path fill-rule="evenodd" clip-rule="evenodd" d="M2893.33 1684.67C2981.57 1697.76 3074.68 1682.35 3158.03 1634.48C3354.84 1521.45 3422.75 1270.28 3309.72 1073.48C3266.8 998.747 3203.96 942.601 3131.75 907.89C3251.84 925.707 3362.89 996.324 3428.05 1109.77C3541.08 1306.57 3473.17 1557.74 3276.36 1670.77C3154.29 1740.88 3011.3 1741.37 2893.33 1684.67Z" fill="#8E69F8"/>
<circle cx="2544.5" cy="580.5" r="22.5" fill="#8E69F8"/>
<circle cx="1589.5" cy="447.5" r="22.5" fill="#8E69F8"/>
<circle cx="1682.5" cy="794.5" r="22.5" fill="#8E69F8"/>
<circle cx="1164.5" cy="886.5" r="22.5" fill="#8E69F8"/>
<circle cx="861.5" cy="931.5" r="22.5" fill="#8E69F8"/>
<circle cx="1637.5" cy="1158.5" r="22.5" fill="#8E69F8"/>
<circle cx="3067.5" cy="1697.5" r="22.5" fill="#8E69F8"/>
<circle cx="407.5" cy="671.5" r="22.5" fill="#8E69F8"/>
<circle cx="1003.5" cy="694.5" r="22.5" fill="#8E69F8"/>
<circle cx="2985.5" cy="985.5" r="22.5" fill="#8E69F8"/>
<circle cx="1908.5" cy="557.5" r="22.5" fill="#8E69F8"/>
<circle cx="1319.5" cy="685.5" r="22.5" fill="#8E69F8"/>
<circle cx="1261.5" cy="425.5" r="22.5" fill="#8E69F8"/>
<circle cx="2222.5" cy="359.5" r="22.5" fill="#8E69F8"/>
<circle cx="2232.5" cy="685.5" r="22.5" fill="#8E69F8"/>
<circle cx="2257.5" cy="1090.5" r="22.5" fill="#8E69F8"/>
<circle cx="1003.5" cy="1135.5" r="22.5" fill="#8E69F8"/>
<path d="M4000 2396C4000 2236.6 3798.82 2083.74 3440.72 1971.03C3082.62 1858.32 2596.93 1795 2090.5 1795C1584.07 1795 1098.38 1858.32 740.28 1971.03C382.179 2083.74 181 2236.6 181 2396L2090.5 2396H4000Z" fill="#8E69F8"/>
<rect x="3273.1" y="1847.51" width="13.5057" height="192.529" fill="#2D2145"/>
<ellipse cx="3280" cy="1909.72" rx="50" ry="75.7184" fill="#2D2145"/>
<rect x="3156.1" y="1768.51" width="13.5057" height="192.529" fill="#2D2145"/>
<ellipse cx="3163" cy="1830.72" rx="50" ry="75.7184" fill="#2D2145"/>
<rect x="2416.1" y="1940.51" width="13.5057" height="192.529" fill="#2D2145"/>
<ellipse cx="2423" cy="2002.72" rx="50" ry="75.7184" fill="#2D2145"/>
<rect x="1478.1" y="2053.51" width="13.5057" height="192.529" fill="#2D2145"/>
<ellipse cx="1485" cy="2115.72" rx="50" ry="75.7184" fill="#2D2145"/>
<rect x="1703.1" y="1773.51" width="13.5057" height="192.529" fill="#2D2145"/>
<ellipse cx="1710" cy="1835.72" rx="50" ry="75.7184" fill="#2D2145"/>
<rect x="3746.1" y="2163.51" width="13.5057" height="192.529" fill="#2D2145"/>
<ellipse cx="3753" cy="2225.72" rx="50" ry="75.7184" fill="#2D2145"/>
<rect x="1108.1" y="2074.51" width="13.5057" height="192.529" fill="#2D2145"/>
<ellipse cx="1115" cy="2136.72" rx="50" ry="75.7184" fill="#2D2145"/>
<rect x="2695.1" y="1816.51" width="13.5057" height="192.529" fill="#2D2145"/>
<ellipse cx="2702" cy="1878.72" rx="50" ry="75.7184" fill="#2D2145"/>
<rect x="2560.1" y="1618.51" width="13.5057" height="192.529" fill="#2D2145"/>
<ellipse cx="2567" cy="1680.72" rx="50" ry="75.7184" fill="#2D2145"/>
<ellipse cx="2089.5" cy="2409.34" rx="1909.5" ry="89.6653" fill="#2D2145"/>
<rect x="528" y="1265" width="66" height="1150" fill="#2D2145"/>
<rect x="559" y="1387" width="100" height="408" fill="#2D2145"/>
<rect x="3443" y="1423" width="168" height="825" fill="#00C48C"/>
<circle cx="1238" cy="2267" r="150" fill="#00C48C"/>
<circle cx="1238" cy="2267" r="150" fill="#00C48C"/>
<circle cx="3283" cy="2267" r="150" fill="#00C48C"/>
<circle cx="3283" cy="2267" r="150" fill="#00C48C"/>
<circle cx="3765" cy="2267" r="150" fill="#00C48C"/>
<circle cx="3765" cy="2267" r="150" fill="#00C48C"/>
<circle cx="1567" cy="2267" r="150" fill="#00C48C"/>
<circle cx="1567" cy="2267" r="150" fill="#00C48C"/>
<path fill-rule="evenodd" clip-rule="evenodd" d="M812 1873C812 1596.86 1035.86 1373 1312 1373H3473V2270H812V1873ZM981.497 1707.21C989.955 1667.22 1021.9 1636.4 1062.17 1629.39L1127.28 1618.04C1133.4 1616.98 1139 1621.68 1139 1627.89V1908.15H939L981.497 1707.21ZM1462 1616C1448.19 1616 1437 1627.19 1437 1641V1987C1437 2000.81 1448.19 2012 1462 2012H1991C2004.81 2012 2016 2000.81 2016 1987V1641C2016 1627.19 2004.81 1616 1991 1616H1462ZM2079 1641C2079 1627.19 2090.19 1616 2104 1616H2633C2646.81 1616 2658 1627.19 2658 1641V1987C2658 2000.81 2646.81 2012 2633 2012H2104C2090.19 2012 2079 2000.81 2079 1987V1641ZM2746 1616C2732.19 1616 2721 1627.19 2721 1641V1987C2721 2000.81 2732.19 2012 2746 2012H3275C3288.81 2012 3300 2000.81 3300 1987V1641C3300 1627.19 3288.81 1616 3275 1616H2746Z" fill="#99F7CB"/>
<path d="M3576 2270V1373H3967.5V1616H3774C3760.19 1616 3749 1627.19 3749 1641V1987C3749 2000.81 3760.19 2012 3774 2012H3967.5V2270H3576Z" fill="#99F7CB"/>
<path d="M812.233 2161.11C822.113 2161.12 831.898 2159.75 841.029 2157.08C850.161 2154.4 858.46 2150.47 865.453 2145.51C872.446 2140.56 877.996 2134.67 881.786 2128.18C885.576 2121.7 887.532 2114.74 887.542 2107.72C887.552 2100.69 885.617 2093.73 881.845 2087.23C878.074 2080.74 872.54 2074.83 865.562 2069.85C858.583 2064.88 850.295 2060.92 841.171 2058.22C832.047 2055.52 822.266 2054.12 812.386 2054.11L812.31 2107.61L812.233 2161.11Z" fill="#00C48C"/>
<path d="M884.487 1615.02C894.367 1615.03 925.383 1617.27 934.515 1614.59C943.646 1611.92 951.946 1607.99 958.939 1603.03C965.932 1598.07 971.482 1592.18 975.272 1585.7C979.062 1579.21 981.018 1572.26 981.028 1565.23C981.038 1558.21 979.102 1551.25 975.331 1544.75C971.559 1538.25 956.513 1519.5 934.514 1522.5C923.515 1530.5 929.5 1526 923.5 1531C916.5 1537 887.001 1578 884.487 1592.5L884.487 1615.02Z" fill="#00C48C"/>
</g>
<defs>
<clipPath id="clip0_18965_778">
<rect width="4181" height="2684" rx="100" fill="white"/>
</clipPath>
</defs>
</svg>
