<svg width="4181" height="2684" viewBox="0 0 4181 2684" fill="none" xmlns="http://www.w3.org/2000/svg">
<g clip-path="url(#clip0_18960_369)">
<path fill-rule="evenodd" clip-rule="evenodd" d="M2243.33 1267.67C2331.57 1280.76 2424.68 1265.35 2508.03 1217.48C2704.84 1104.45 2772.75 853.279 2659.72 656.476C2616.8 581.747 2553.96 525.601 2481.75 490.89C2601.84 508.707 2712.89 579.324 2778.05 692.771C2891.08 889.573 2823.17 1140.74 2626.36 1253.77C2504.29 1323.88 2361.3 1324.37 2243.33 1267.67Z" fill="#8E69F8"/>
<circle cx="3559.5" cy="299.5" r="22.5" fill="#8E69F8"/>
<circle cx="3302.5" cy="605.5" r="22.5" fill="#8E69F8"/>
<circle cx="2965.5" cy="334.5" r="22.5" fill="#8E69F8"/>
<circle cx="1064.5" cy="280.5" r="22.5" fill="#8E69F8"/>
<circle cx="1407.5" cy="736.5" r="22.5" fill="#8E69F8"/>
<circle cx="3432.5" cy="923.5" r="22.5" fill="#8E69F8"/>
<circle cx="3907.5" cy="837.5" r="22.5" fill="#8E69F8"/>
<circle cx="407.5" cy="671.5" r="22.5" fill="#8E69F8"/>
<circle cx="1457.5" cy="421.5" r="22.5" fill="#8E69F8"/>
<circle cx="3825.5" cy="125.5" r="22.5" fill="#8E69F8"/>
<circle cx="1689.5" cy="175.5" r="22.5" fill="#8E69F8"/>
<circle cx="1714.5" cy="580.5" r="22.5" fill="#8E69F8"/>
<circle cx="1261.5" cy="425.5" r="22.5" fill="#8E69F8"/>
<circle cx="2222.5" cy="359.5" r="22.5" fill="#8E69F8"/>
<circle cx="3247.5" cy="404.5" r="22.5" fill="#8E69F8"/>
<circle cx="3272.5" cy="809.5" r="22.5" fill="#8E69F8"/>
<circle cx="3780.5" cy="588.5" r="22.5" fill="#8E69F8"/>
<path d="M4000 2396C4000 2236.6 3798.82 2083.74 3440.72 1971.03C3082.62 1858.32 2596.93 1795 2090.5 1795C1584.07 1795 1098.38 1858.32 740.28 1971.03C382.179 2083.74 181 2236.6 181 2396L2090.5 2396H4000Z" fill="#8E69F8"/>
<rect x="502.104" y="2016.51" width="13.5057" height="192.529" fill="#2D2145"/>
<ellipse cx="509" cy="2078.72" rx="50" ry="75.7184" fill="#2D2145"/>
<rect x="3273.1" y="1847.51" width="13.5057" height="192.529" fill="#2D2145"/>
<ellipse cx="3280" cy="1909.72" rx="50" ry="75.7184" fill="#2D2145"/>
<rect x="3156.1" y="1768.51" width="13.5057" height="192.529" fill="#2D2145"/>
<ellipse cx="3163" cy="1830.72" rx="50" ry="75.7184" fill="#2D2145"/>
<rect x="2416.1" y="1940.51" width="13.5057" height="192.529" fill="#2D2145"/>
<ellipse cx="2423" cy="2002.72" rx="50" ry="75.7184" fill="#2D2145"/>
<rect x="1478.1" y="2053.51" width="13.5057" height="192.529" fill="#2D2145"/>
<ellipse cx="1485" cy="2115.72" rx="50" ry="75.7184" fill="#2D2145"/>
<rect x="1703.1" y="1773.51" width="13.5057" height="192.529" fill="#2D2145"/>
<ellipse cx="1710" cy="1835.72" rx="50" ry="75.7184" fill="#2D2145"/>
<rect x="3746.1" y="2163.51" width="13.5057" height="192.529" fill="#2D2145"/>
<ellipse cx="3753" cy="2225.72" rx="50" ry="75.7184" fill="#2D2145"/>
<rect x="1108.1" y="2074.51" width="13.5057" height="192.529" fill="#2D2145"/>
<ellipse cx="1115" cy="2136.72" rx="50" ry="75.7184" fill="#2D2145"/>
<rect x="2695.1" y="1816.51" width="13.5057" height="192.529" fill="#2D2145"/>
<ellipse cx="2702" cy="1878.72" rx="50" ry="75.7184" fill="#2D2145"/>
<rect x="2560.1" y="1618.51" width="13.5057" height="192.529" fill="#2D2145"/>
<ellipse cx="2567" cy="1680.72" rx="50" ry="75.7184" fill="#2D2145"/>
<path d="M2054.5 1665.6C1578.49 1604.57 1278.49 1945.3 1036 1752.37C1084.29 1879.43 1865.5 2136.94 2054.5 2159.73C2243.5 2182.52 2842.52 2441.09 3026.5 2159.73C2753.48 2384.31 2530.51 1726.63 2054.5 1665.6Z" fill="#99F7CB"/>
<path d="M1036 1752.37C1278.49 1945.3 1578.49 1604.57 2054.5 1665.6C2530.51 1726.63 2753.48 2384.31 3026.5 2159.73M1036 1752.37C1084.29 1879.43 1865.5 2136.94 2054.5 2159.73C2243.5 2182.52 2842.52 2441.09 3026.5 2159.73M1036 1752.37C972.557 2075.5 1006.79 1949.16 788 1554C1050.16 1707.98 942.138 1648.54 1036 1752.37ZM3026.5 2159.73C3140.73 1883.27 3265.79 1774.12 3455 1554C3389.34 1646.24 3236.96 2175.54 3026.5 2159.73Z" stroke="#99F7CB" stroke-width="25"/>
<ellipse cx="2089.5" cy="2409.34" rx="1909.5" ry="89.6653" fill="#2D2145"/>
<rect x="722.035" y="863.783" width="135.057" height="1576.54" fill="#2D2145"/>
<ellipse cx="791" cy="1126.5" rx="332" ry="605.5" fill="#2D2145"/>
<rect x="3364.04" y="884.254" width="135.057" height="1576.54" fill="#2D2145"/>
<ellipse cx="3433" cy="1150" rx="332" ry="605" fill="#2D2145"/>
<path d="M1565.5 1795L1819.75 1900M1972 1939L1819.75 1900M1972 1939L2226.5 1967L2250.5 2082M1972 1939L2190.5 1833.5L2408.5 1967M1819.75 1900L1867.88 1795C1867.88 1795 1818.51 1713.63 1786.88 1661.5M1819.75 1900L1786.88 2007L1540.5 1900" stroke="#FECB00" stroke-width="50"/>
<circle cx="1520" cy="1782" r="140" fill="#FECB00"/>
<path d="M1422.35 1111.6L1422.2 1117.15L1351.7 1210.45H1422.35V1216H1344.8V1210.45L1415.15 1117.15H1346.45V1111.6H1422.35ZM1533.39 1111.6L1533.24 1117.15L1462.74 1210.45H1533.39V1216H1455.84V1210.45L1526.19 1117.15H1457.49V1111.6H1533.39ZM1644.42 1111.6L1644.27 1117.15L1573.77 1210.45H1644.42V1216H1566.87V1210.45L1637.22 1117.15H1568.52V1111.6H1644.42ZM1755.46 1111.6L1755.31 1117.15L1684.81 1210.45H1755.46V1216H1677.91V1210.45L1748.26 1117.15H1679.56V1111.6H1755.46ZM1813.99 1204.6C1813.99 1200.9 1815.29 1197.75 1817.89 1195.15C1820.59 1192.45 1823.84 1191.1 1827.64 1191.1C1831.44 1191.1 1834.64 1192.45 1837.24 1195.15C1839.94 1197.75 1841.29 1200.9 1841.29 1204.6C1841.29 1208.3 1839.94 1211.5 1837.24 1214.2C1834.64 1216.9 1831.44 1218.25 1827.64 1218.25C1823.94 1218.25 1820.74 1216.9 1818.04 1214.2C1815.34 1211.5 1813.99 1208.3 1813.99 1204.6ZM1925.03 1204.6C1925.03 1200.9 1926.33 1197.75 1928.93 1195.15C1931.63 1192.45 1934.88 1191.1 1938.68 1191.1C1942.48 1191.1 1945.68 1192.45 1948.28 1195.15C1950.98 1197.75 1952.33 1200.9 1952.33 1204.6C1952.33 1208.3 1950.98 1211.5 1948.28 1214.2C1945.68 1216.9 1942.48 1218.25 1938.68 1218.25C1934.98 1218.25 1931.78 1216.9 1929.08 1214.2C1926.38 1211.5 1925.03 1208.3 1925.03 1204.6ZM2036.06 1204.6C2036.06 1200.9 2037.36 1197.75 2039.96 1195.15C2042.66 1192.45 2045.91 1191.1 2049.71 1191.1C2053.51 1191.1 2056.71 1192.45 2059.31 1195.15C2062.01 1197.75 2063.36 1200.9 2063.36 1204.6C2063.36 1208.3 2062.01 1211.5 2059.31 1214.2C2056.71 1216.9 2053.51 1218.25 2049.71 1218.25C2046.01 1218.25 2042.81 1216.9 2040.11 1214.2C2037.41 1211.5 2036.06 1208.3 2036.06 1204.6Z" fill="#FECB00"/>
<path d="M1699.56 1662C1699.56 1662 1806.56 1434.5 1699.56 1452.5C1592.56 1470.5 1699.56 1243 1699.56 1243" stroke="#FECB00" stroke-width="5"/>
<path d="M1683.56 1662C1683.56 1662 1790.56 1434.5 1683.56 1452.5C1576.56 1470.5 1683.56 1243 1683.56 1243" stroke="#FECB00" stroke-width="5"/>
<path d="M1666.56 1662C1666.56 1662 1773.56 1434.5 1666.56 1452.5C1559.56 1470.5 1666.56 1243 1666.56 1243" stroke="#FECB00" stroke-width="5"/>
<path d="M1649.56 1662C1649.56 1662 1756.56 1434.5 1649.56 1452.5C1542.56 1470.5 1649.56 1243 1649.56 1243" stroke="#FECB00" stroke-width="5"/>
<path d="M1634.56 1662C1634.56 1662 1741.56 1434.5 1634.56 1452.5C1527.56 1470.5 1634.56 1243 1634.56 1243" stroke="#FECB00" stroke-width="5"/>
</g>
<defs>
<clipPath id="clip0_18960_369">
<rect width="4181" height="2684" rx="100" fill="white"/>
</clipPath>
</defs>
</svg>
